solid ascii
  facet normal 1.000000e+00 0.000000e+00 0.000000e+00
    outer loop
      vertex   -2.960000e+01 -2.325000e+01 3.100000e+00
      vertex   -2.960000e+01 -2.325000e+01 -3.100000e+00
      vertex   -2.960000e+01 2.325000e+01 -3.100000e+00
    endloop
  endfacet
  facet normal 1.000000e+00 0.000000e+00 -0.000000e+00
    outer loop
      vertex   -2.960000e+01 2.325000e+01 -3.100000e+00
      vertex   -2.960000e+01 2.325000e+01 3.100000e+00
      vertex   -2.960000e+01 -2.325000e+01 3.100000e+00
    endloop
  endfacet
  facet normal 8.127641e-01 -5.825930e-01 0.000000e+00
    outer loop
      vertex   -4.393609e+01 -4.325000e+01 3.100000e+00
      vertex   -4.393609e+01 -4.325000e+01 -3.100000e+00
      vertex   -2.960000e+01 -2.325000e+01 -3.100000e+00
    endloop
  endfacet
  facet normal 8.127641e-01 -5.825930e-01 0.000000e+00
    outer loop
      vertex   -2.960000e+01 -2.325000e+01 -3.100000e+00
      vertex   -2.960000e+01 -2.325000e+01 3.100000e+00
      vertex   -4.393609e+01 -4.325000e+01 3.100000e+00
    endloop
  endfacet
  facet normal -1.000000e+00 0.000000e+00 -0.000000e+00
    outer loop
      vertex   -4.393609e+01 4.325000e+01 3.100000e+00
      vertex   -4.393609e+01 4.325000e+01 -3.100000e+00
      vertex   -4.393609e+01 -4.325000e+01 -3.100000e+00
    endloop
  endfacet
  facet normal -1.000000e+00 0.000000e+00 0.000000e+00
    outer loop
      vertex   -4.393609e+01 -4.325000e+01 -3.100000e+00
      vertex   -4.393609e+01 -4.325000e+01 3.100000e+00
      vertex   -4.393609e+01 4.325000e+01 3.100000e+00
    endloop
  endfacet
  facet normal 8.127641e-01 5.825930e-01 0.000000e+00
    outer loop
      vertex   -2.960000e+01 2.325000e+01 3.100000e+00
      vertex   -2.960000e+01 2.325000e+01 -3.100000e+00
      vertex   -4.393609e+01 4.325000e+01 -3.100000e+00
    endloop
  endfacet
  facet normal 8.127641e-01 5.825930e-01 -0.000000e+00
    outer loop
      vertex   -4.393609e+01 4.325000e+01 -3.100000e+00
      vertex   -4.393609e+01 4.325000e+01 3.100000e+00
      vertex   -2.960000e+01 2.325000e+01 3.100000e+00
    endloop
  endfacet
  facet normal -0.000000e+00 0.000000e+00 -1.000000e+00
    outer loop
      vertex   -2.960000e+01 -2.325000e+01 -3.100000e+00
      vertex   -4.393609e+01 -4.325000e+01 -3.100000e+00
      vertex   -4.393609e+01 4.325000e+01 -3.100000e+00
    endloop
  endfacet
  facet normal 0.000000e+00 0.000000e+00 -1.000000e+00
    outer loop
      vertex   -4.393609e+01 4.325000e+01 -3.100000e+00
      vertex   -2.960000e+01 2.325000e+01 -3.100000e+00
      vertex   -2.960000e+01 -2.325000e+01 -3.100000e+00
    endloop
  endfacet
  facet normal 0.000000e+00 0.000000e+00 1.000000e+00
    outer loop
      vertex   -2.960000e+01 2.325000e+01 3.100000e+00
      vertex   -4.393609e+01 4.325000e+01 3.100000e+00
      vertex   -4.393609e+01 -4.325000e+01 3.100000e+00
    endloop
  endfacet
  facet normal 0.000000e+00 0.000000e+00 1.000000e+00
    outer loop
      vertex   -4.393609e+01 -4.325000e+01 3.100000e+00
      vertex   -2.960000e+01 -2.325000e+01 3.100000e+00
      vertex   -2.960000e+01 2.325000e+01 3.100000e+00
    endloop
  endfacet
endsolid
