solid ascii
  facet normal 0.000000e+00 -0.000000e+00 -1.000000e+00
    outer loop
      vertex   4.677778e+00 2.031846e+00 6.000000e+00
      vertex   5.052498e+00 6.944499e-01 6.000000e+00
      vertex   0.000000e+00 0.000000e+00 6.000000e+00
    endloop
  endfacet
  facet normal 0.000000e+00 -0.000000e+00 -1.000000e+00
    outer loop
      vertex   5.052498e+00 6.944499e-01 6.000000e+00
      vertex   5.100000e+00 6.245699e-16 6.000000e+00
      vertex   0.000000e+00 0.000000e+00 6.000000e+00
    endloop
  endfacet
  facet normal 0.000000e+00 0.000000e+00 -1.000000e+00
    outer loop
      vertex   5.100000e+00 6.245699e-16 6.000000e+00
      vertex   5.052498e+00 -6.944499e-01 6.000000e+00
      vertex   0.000000e+00 0.000000e+00 6.000000e+00
    endloop
  endfacet
  facet normal 0.000000e+00 -0.000000e+00 -1.000000e+00
    outer loop
      vertex   1.707886e+00 4.805531e+00 6.000000e+00
      vertex   2.941070e+00 4.166546e+00 6.000000e+00
      vertex   0.000000e+00 0.000000e+00 6.000000e+00
    endloop
  endfacet
  facet normal 0.000000e+00 -0.000000e+00 -1.000000e+00
    outer loop
      vertex   2.941070e+00 4.166546e+00 6.000000e+00
      vertex   3.956128e+00 3.218549e+00 6.000000e+00
      vertex   0.000000e+00 0.000000e+00 6.000000e+00
    endloop
  endfacet
  facet normal 0.000000e+00 -0.000000e+00 -1.000000e+00
    outer loop
      vertex   3.956128e+00 3.218549e+00 6.000000e+00
      vertex   4.677778e+00 2.031846e+00 6.000000e+00
      vertex   0.000000e+00 0.000000e+00 6.000000e+00
    endloop
  endfacet
  facet normal 0.000000e+00 0.000000e+00 -1.000000e+00
    outer loop
      vertex   -2.346332e+00 4.528215e+00 6.000000e+00
      vertex   -1.037626e+00 4.993329e+00 6.000000e+00
      vertex   0.000000e+00 0.000000e+00 6.000000e+00
    endloop
  endfacet
  facet normal 0.000000e+00 0.000000e+00 -1.000000e+00
    outer loop
      vertex   -1.037626e+00 4.993329e+00 6.000000e+00
      vertex   3.480363e-01 5.088111e+00 6.000000e+00
      vertex   0.000000e+00 0.000000e+00 6.000000e+00
    endloop
  endfacet
  facet normal 0.000000e+00 -0.000000e+00 -1.000000e+00
    outer loop
      vertex   3.480363e-01 5.088111e+00 6.000000e+00
      vertex   1.707886e+00 4.805531e+00 6.000000e+00
      vertex   0.000000e+00 0.000000e+00 6.000000e+00
    endloop
  endfacet
  facet normal 0.000000e+00 0.000000e+00 -1.000000e+00
    outer loop
      vertex   -4.910878e+00 1.375964e+00 6.000000e+00
      vertex   -4.357539e+00 2.649878e+00 6.000000e+00
      vertex   0.000000e+00 0.000000e+00 6.000000e+00
    endloop
  endfacet
  facet normal 0.000000e+00 0.000000e+00 -1.000000e+00
    outer loop
      vertex   -4.357539e+00 2.649878e+00 6.000000e+00
      vertex   -3.481021e+00 3.727263e+00 6.000000e+00
      vertex   0.000000e+00 0.000000e+00 6.000000e+00
    endloop
  endfacet
  facet normal 0.000000e+00 0.000000e+00 -1.000000e+00
    outer loop
      vertex   -3.481021e+00 3.727263e+00 6.000000e+00
      vertex   -2.346332e+00 4.528215e+00 6.000000e+00
      vertex   0.000000e+00 0.000000e+00 6.000000e+00
    endloop
  endfacet
  facet normal 0.000000e+00 0.000000e+00 -1.000000e+00
    outer loop
      vertex   -4.357539e+00 -2.649878e+00 6.000000e+00
      vertex   -4.910878e+00 -1.375964e+00 6.000000e+00
      vertex   0.000000e+00 0.000000e+00 6.000000e+00
    endloop
  endfacet
  facet normal 0.000000e+00 0.000000e+00 -1.000000e+00
    outer loop
      vertex   -4.910878e+00 -1.375964e+00 6.000000e+00
      vertex   -5.100000e+00 0.000000e+00 6.000000e+00
      vertex   0.000000e+00 0.000000e+00 6.000000e+00
    endloop
  endfacet
  facet normal 0.000000e+00 0.000000e+00 -1.000000e+00
    outer loop
      vertex   -5.100000e+00 0.000000e+00 6.000000e+00
      vertex   -4.910878e+00 1.375964e+00 6.000000e+00
      vertex   0.000000e+00 0.000000e+00 6.000000e+00
    endloop
  endfacet
  facet normal 0.000000e+00 0.000000e+00 -1.000000e+00
    outer loop
      vertex   -1.037626e+00 -4.993329e+00 6.000000e+00
      vertex   -2.346332e+00 -4.528215e+00 6.000000e+00
      vertex   0.000000e+00 0.000000e+00 6.000000e+00
    endloop
  endfacet
  facet normal 0.000000e+00 0.000000e+00 -1.000000e+00
    outer loop
      vertex   -2.346332e+00 -4.528215e+00 6.000000e+00
      vertex   -3.481021e+00 -3.727263e+00 6.000000e+00
      vertex   0.000000e+00 0.000000e+00 6.000000e+00
    endloop
  endfacet
  facet normal 0.000000e+00 0.000000e+00 -1.000000e+00
    outer loop
      vertex   -3.481021e+00 -3.727263e+00 6.000000e+00
      vertex   -4.357539e+00 -2.649878e+00 6.000000e+00
      vertex   0.000000e+00 0.000000e+00 6.000000e+00
    endloop
  endfacet
  facet normal -0.000000e+00 0.000000e+00 -1.000000e+00
    outer loop
      vertex   2.941070e+00 -4.166546e+00 6.000000e+00
      vertex   1.707886e+00 -4.805531e+00 6.000000e+00
      vertex   0.000000e+00 0.000000e+00 6.000000e+00
    endloop
  endfacet
  facet normal -0.000000e+00 0.000000e+00 -1.000000e+00
    outer loop
      vertex   1.707886e+00 -4.805531e+00 6.000000e+00
      vertex   3.480363e-01 -5.088111e+00 6.000000e+00
      vertex   0.000000e+00 0.000000e+00 6.000000e+00
    endloop
  endfacet
  facet normal 0.000000e+00 0.000000e+00 -1.000000e+00
    outer loop
      vertex   3.480363e-01 -5.088111e+00 6.000000e+00
      vertex   -1.037626e+00 -4.993329e+00 6.000000e+00
      vertex   0.000000e+00 0.000000e+00 6.000000e+00
    endloop
  endfacet
  facet normal 0.000000e+00 0.000000e+00 -1.000000e+00
    outer loop
      vertex   0.000000e+00 0.000000e+00 6.000000e+00
      vertex   5.052498e+00 -6.944499e-01 6.000000e+00
      vertex   4.677778e+00 -2.031846e+00 6.000000e+00
    endloop
  endfacet
  facet normal -0.000000e+00 0.000000e+00 -1.000000e+00
    outer loop
      vertex   4.677778e+00 -2.031846e+00 6.000000e+00
      vertex   3.956128e+00 -3.218549e+00 6.000000e+00
      vertex   0.000000e+00 0.000000e+00 6.000000e+00
    endloop
  endfacet
  facet normal -0.000000e+00 0.000000e+00 -1.000000e+00
    outer loop
      vertex   3.956128e+00 -3.218549e+00 6.000000e+00
      vertex   2.941070e+00 -4.166546e+00 6.000000e+00
      vertex   0.000000e+00 0.000000e+00 6.000000e+00
    endloop
  endfacet
  facet normal 9.906859e-01 -1.361666e-01 -7.248287e-18
    outer loop
      vertex   -4.910878e+00 1.375964e+00 6.000000e+00
      vertex   -5.100000e+00 0.000000e+00 6.000000e+00
      vertex   -5.100000e+00 0.000000e+00 1.400000e+00
    endloop
  endfacet
  facet normal 9.906859e-01 -1.361666e-01 -7.248287e-18
    outer loop
      vertex   -5.100000e+00 0.000000e+00 1.400000e+00
      vertex   -4.910878e+00 1.375964e+00 1.400000e+00
      vertex   -4.910878e+00 1.375964e+00 6.000000e+00
    endloop
  endfacet
  facet normal 9.172113e-01 -3.984011e-01 1.449657e-17
    outer loop
      vertex   -4.357539e+00 2.649878e+00 6.000000e+00
      vertex   -4.910878e+00 1.375964e+00 6.000000e+00
      vertex   -4.910878e+00 1.375964e+00 1.400000e+00
    endloop
  endfacet
  facet normal 9.172113e-01 -3.984011e-01 1.449657e-17
    outer loop
      vertex   -4.910878e+00 1.375964e+00 1.400000e+00
      vertex   -4.357539e+00 2.649878e+00 1.400000e+00
      vertex   -4.357539e+00 2.649878e+00 6.000000e+00
    endloop
  endfacet
  facet normal 7.757113e-01 -6.310879e-01 2.899315e-17
    outer loop
      vertex   -3.481021e+00 3.727263e+00 6.000000e+00
      vertex   -4.357539e+00 2.649878e+00 6.000000e+00
      vertex   -4.357539e+00 2.649878e+00 1.400000e+00
    endloop
  endfacet
  facet normal 7.757113e-01 -6.310879e-01 2.899315e-17
    outer loop
      vertex   -4.357539e+00 2.649878e+00 1.400000e+00
      vertex   -3.481021e+00 3.727263e+00 1.400000e+00
      vertex   -3.481021e+00 3.727263e+00 6.000000e+00
    endloop
  endfacet
  facet normal 5.766803e-01 -8.169699e-01 0.000000e+00
    outer loop
      vertex   -2.346332e+00 4.528215e+00 6.000000e+00
      vertex   -3.481021e+00 3.727263e+00 6.000000e+00
      vertex   -3.481021e+00 3.727263e+00 1.400000e+00
    endloop
  endfacet
  facet normal 5.766803e-01 -8.169699e-01 0.000000e+00
    outer loop
      vertex   -3.481021e+00 3.727263e+00 1.400000e+00
      vertex   -2.346332e+00 4.528215e+00 1.400000e+00
      vertex   -2.346332e+00 4.528215e+00 6.000000e+00
    endloop
  endfacet
  facet normal 3.348796e-01 -9.422609e-01 1.449657e-17
    outer loop
      vertex   -1.037626e+00 4.993329e+00 6.000000e+00
      vertex   -2.346332e+00 4.528215e+00 6.000000e+00
      vertex   -2.346332e+00 4.528215e+00 1.400000e+00
    endloop
  endfacet
  facet normal 3.348796e-01 -9.422609e-01 1.449657e-17
    outer loop
      vertex   -2.346332e+00 4.528215e+00 1.400000e+00
      vertex   -1.037626e+00 4.993329e+00 1.400000e+00
      vertex   -1.037626e+00 4.993329e+00 6.000000e+00
    endloop
  endfacet
  facet normal 6.824241e-02 -9.976688e-01 -3.624143e-18
    outer loop
      vertex   3.480363e-01 5.088111e+00 6.000000e+00
      vertex   -1.037626e+00 4.993329e+00 6.000000e+00
      vertex   -1.037626e+00 4.993329e+00 1.400000e+00
    endloop
  endfacet
  facet normal 6.824241e-02 -9.976688e-01 -3.624143e-18
    outer loop
      vertex   -1.037626e+00 4.993329e+00 1.400000e+00
      vertex   3.480363e-01 5.088111e+00 1.400000e+00
      vertex   3.480363e-01 5.088111e+00 6.000000e+00
    endloop
  endfacet
  facet normal -2.034560e-01 -9.790841e-01 0.000000e+00
    outer loop
      vertex   1.707886e+00 4.805531e+00 6.000000e+00
      vertex   3.480363e-01 5.088111e+00 6.000000e+00
      vertex   3.480363e-01 5.088111e+00 1.400000e+00
    endloop
  endfacet
  facet normal -2.034560e-01 -9.790841e-01 0.000000e+00
    outer loop
      vertex   3.480363e-01 5.088111e+00 1.400000e+00
      vertex   1.707886e+00 4.805531e+00 1.400000e+00
      vertex   1.707886e+00 4.805531e+00 6.000000e+00
    endloop
  endfacet
  facet normal -4.600650e-01 -8.878852e-01 -1.449657e-17
    outer loop
      vertex   2.941070e+00 4.166546e+00 6.000000e+00
      vertex   1.707886e+00 4.805531e+00 6.000000e+00
      vertex   1.707886e+00 4.805531e+00 1.400000e+00
    endloop
  endfacet
  facet normal -4.600650e-01 -8.878852e-01 -1.449657e-17
    outer loop
      vertex   1.707886e+00 4.805531e+00 1.400000e+00
      vertex   2.941070e+00 4.166546e+00 1.400000e+00
      vertex   2.941070e+00 4.166546e+00 6.000000e+00
    endloop
  endfacet
  facet normal -6.825531e-01 -7.308360e-01 -2.899315e-17
    outer loop
      vertex   3.956128e+00 3.218549e+00 6.000000e+00
      vertex   2.941070e+00 4.166546e+00 6.000000e+00
      vertex   2.941070e+00 4.166546e+00 1.400000e+00
    endloop
  endfacet
  facet normal -6.825531e-01 -7.308360e-01 -2.899315e-17
    outer loop
      vertex   2.941070e+00 4.166546e+00 1.400000e+00
      vertex   3.956128e+00 3.218549e+00 1.400000e+00
      vertex   3.956128e+00 3.218549e+00 6.000000e+00
    endloop
  endfacet
  facet normal -8.544194e-01 -5.195840e-01 2.899315e-17
    outer loop
      vertex   4.677778e+00 2.031846e+00 6.000000e+00
      vertex   3.956128e+00 3.218549e+00 6.000000e+00
      vertex   3.956128e+00 3.218549e+00 1.400000e+00
    endloop
  endfacet
  facet normal -8.544194e-01 -5.195840e-01 2.899315e-17
    outer loop
      vertex   3.956128e+00 3.218549e+00 1.400000e+00
      vertex   4.677778e+00 2.031846e+00 1.400000e+00
      vertex   4.677778e+00 2.031846e+00 6.000000e+00
    endloop
  endfacet
  facet normal -9.629173e-01 -2.697968e-01 0.000000e+00
    outer loop
      vertex   5.052498e+00 6.944499e-01 6.000000e+00
      vertex   4.677778e+00 2.031846e+00 6.000000e+00
      vertex   4.677778e+00 2.031846e+00 1.400000e+00
    endloop
  endfacet
  facet normal -9.629173e-01 -2.697968e-01 0.000000e+00
    outer loop
      vertex   4.677778e+00 2.031846e+00 1.400000e+00
      vertex   5.052498e+00 6.944499e-01 1.400000e+00
      vertex   5.052498e+00 6.944499e-01 6.000000e+00
    endloop
  endfacet
  facet normal -9.976688e-01 -6.824241e-02 1.754472e-18
    outer loop
      vertex   5.100000e+00 6.245699e-16 6.000000e+00
      vertex   5.052498e+00 6.944499e-01 6.000000e+00
      vertex   5.052498e+00 6.944499e-01 1.400000e+00
    endloop
  endfacet
  facet normal -9.976688e-01 -6.824241e-02 -1.754472e-17
    outer loop
      vertex   5.052498e+00 6.944499e-01 1.400000e+00
      vertex   5.100000e+00 1.873710e-15 1.400000e+00
      vertex   5.100000e+00 6.245699e-16 6.000000e+00
    endloop
  endfacet
  facet normal -9.976688e-01 6.824241e-02 1.579025e-17
    outer loop
      vertex   5.052498e+00 -6.944499e-01 6.000000e+00
      vertex   5.100000e+00 6.245699e-16 6.000000e+00
      vertex   5.100000e+00 1.873710e-15 1.400000e+00
    endloop
  endfacet
  facet normal -9.976688e-01 6.824241e-02 -1.754472e-18
    outer loop
      vertex   5.100000e+00 1.873710e-15 1.400000e+00
      vertex   5.052498e+00 -6.944499e-01 1.400000e+00
      vertex   5.052498e+00 -6.944499e-01 6.000000e+00
    endloop
  endfacet
  facet normal -9.629173e-01 2.697968e-01 -1.449657e-17
    outer loop
      vertex   4.677778e+00 -2.031846e+00 6.000000e+00
      vertex   5.052498e+00 -6.944499e-01 6.000000e+00
      vertex   5.052498e+00 -6.944499e-01 1.400000e+00
    endloop
  endfacet
  facet normal -9.629173e-01 2.697968e-01 -1.449657e-17
    outer loop
      vertex   5.052498e+00 -6.944499e-01 1.400000e+00
      vertex   4.677778e+00 -2.031846e+00 1.400000e+00
      vertex   4.677778e+00 -2.031846e+00 6.000000e+00
    endloop
  endfacet
  facet normal -8.544194e-01 5.195840e-01 0.000000e+00
    outer loop
      vertex   3.956128e+00 -3.218549e+00 6.000000e+00
      vertex   4.677778e+00 -2.031846e+00 6.000000e+00
      vertex   4.677778e+00 -2.031846e+00 1.400000e+00
    endloop
  endfacet
  facet normal -8.544194e-01 5.195840e-01 0.000000e+00
    outer loop
      vertex   4.677778e+00 -2.031846e+00 1.400000e+00
      vertex   3.956128e+00 -3.218549e+00 1.400000e+00
      vertex   3.956128e+00 -3.218549e+00 6.000000e+00
    endloop
  endfacet
  facet normal -6.825531e-01 7.308360e-01 -2.899315e-17
    outer loop
      vertex   2.941070e+00 -4.166546e+00 6.000000e+00
      vertex   3.956128e+00 -3.218549e+00 6.000000e+00
      vertex   3.956128e+00 -3.218549e+00 1.400000e+00
    endloop
  endfacet
  facet normal -6.825531e-01 7.308360e-01 -2.899315e-17
    outer loop
      vertex   3.956128e+00 -3.218549e+00 1.400000e+00
      vertex   2.941070e+00 -4.166546e+00 1.400000e+00
      vertex   2.941070e+00 -4.166546e+00 6.000000e+00
    endloop
  endfacet
  facet normal -4.600650e-01 8.878852e-01 -1.449657e-17
    outer loop
      vertex   1.707886e+00 -4.805531e+00 6.000000e+00
      vertex   2.941070e+00 -4.166546e+00 6.000000e+00
      vertex   2.941070e+00 -4.166546e+00 1.400000e+00
    endloop
  endfacet
  facet normal -4.600650e-01 8.878852e-01 -1.449657e-17
    outer loop
      vertex   2.941070e+00 -4.166546e+00 1.400000e+00
      vertex   1.707886e+00 -4.805531e+00 1.400000e+00
      vertex   1.707886e+00 -4.805531e+00 6.000000e+00
    endloop
  endfacet
  facet normal -2.034560e-01 9.790841e-01 0.000000e+00
    outer loop
      vertex   3.480363e-01 -5.088111e+00 6.000000e+00
      vertex   1.707886e+00 -4.805531e+00 6.000000e+00
      vertex   1.707886e+00 -4.805531e+00 1.400000e+00
    endloop
  endfacet
  facet normal -2.034560e-01 9.790841e-01 0.000000e+00
    outer loop
      vertex   1.707886e+00 -4.805531e+00 1.400000e+00
      vertex   3.480363e-01 -5.088111e+00 1.400000e+00
      vertex   3.480363e-01 -5.088111e+00 6.000000e+00
    endloop
  endfacet
  facet normal 6.824241e-02 9.976688e-01 0.000000e+00
    outer loop
      vertex   -1.037626e+00 -4.993329e+00 6.000000e+00
      vertex   3.480363e-01 -5.088111e+00 6.000000e+00
      vertex   3.480363e-01 -5.088111e+00 1.400000e+00
    endloop
  endfacet
  facet normal 6.824241e-02 9.976688e-01 0.000000e+00
    outer loop
      vertex   3.480363e-01 -5.088111e+00 1.400000e+00
      vertex   -1.037626e+00 -4.993329e+00 1.400000e+00
      vertex   -1.037626e+00 -4.993329e+00 6.000000e+00
    endloop
  endfacet
  facet normal 3.348796e-01 9.422609e-01 0.000000e+00
    outer loop
      vertex   -2.346332e+00 -4.528215e+00 6.000000e+00
      vertex   -1.037626e+00 -4.993329e+00 6.000000e+00
      vertex   -1.037626e+00 -4.993329e+00 1.400000e+00
    endloop
  endfacet
  facet normal 3.348796e-01 9.422609e-01 0.000000e+00
    outer loop
      vertex   -1.037626e+00 -4.993329e+00 1.400000e+00
      vertex   -2.346332e+00 -4.528215e+00 1.400000e+00
      vertex   -2.346332e+00 -4.528215e+00 6.000000e+00
    endloop
  endfacet
  facet normal 5.766803e-01 8.169699e-01 0.000000e+00
    outer loop
      vertex   -3.481021e+00 -3.727263e+00 6.000000e+00
      vertex   -2.346332e+00 -4.528215e+00 6.000000e+00
      vertex   -2.346332e+00 -4.528215e+00 1.400000e+00
    endloop
  endfacet
  facet normal 5.766803e-01 8.169699e-01 0.000000e+00
    outer loop
      vertex   -2.346332e+00 -4.528215e+00 1.400000e+00
      vertex   -3.481021e+00 -3.727263e+00 1.400000e+00
      vertex   -3.481021e+00 -3.727263e+00 6.000000e+00
    endloop
  endfacet
  facet normal 7.757113e-01 6.310879e-01 0.000000e+00
    outer loop
      vertex   -4.357539e+00 -2.649878e+00 6.000000e+00
      vertex   -3.481021e+00 -3.727263e+00 6.000000e+00
      vertex   -3.481021e+00 -3.727263e+00 1.400000e+00
    endloop
  endfacet
  facet normal 7.757113e-01 6.310879e-01 0.000000e+00
    outer loop
      vertex   -3.481021e+00 -3.727263e+00 1.400000e+00
      vertex   -4.357539e+00 -2.649878e+00 1.400000e+00
      vertex   -4.357539e+00 -2.649878e+00 6.000000e+00
    endloop
  endfacet
  facet normal 9.172113e-01 3.984011e-01 -1.449657e-17
    outer loop
      vertex   -4.910878e+00 -1.375964e+00 6.000000e+00
      vertex   -4.357539e+00 -2.649878e+00 6.000000e+00
      vertex   -4.357539e+00 -2.649878e+00 1.400000e+00
    endloop
  endfacet
  facet normal 9.172113e-01 3.984011e-01 -1.449657e-17
    outer loop
      vertex   -4.357539e+00 -2.649878e+00 1.400000e+00
      vertex   -4.910878e+00 -1.375964e+00 1.400000e+00
      vertex   -4.910878e+00 -1.375964e+00 6.000000e+00
    endloop
  endfacet
  facet normal 9.906859e-01 1.361666e-01 0.000000e+00
    outer loop
      vertex   -5.100000e+00 0.000000e+00 6.000000e+00
      vertex   -4.910878e+00 -1.375964e+00 6.000000e+00
      vertex   -4.910878e+00 -1.375964e+00 1.400000e+00
    endloop
  endfacet
  facet normal 9.906859e-01 1.361666e-01 0.000000e+00
    outer loop
      vertex   -4.910878e+00 -1.375964e+00 1.400000e+00
      vertex   -5.100000e+00 0.000000e+00 1.400000e+00
      vertex   -5.100000e+00 0.000000e+00 6.000000e+00
    endloop
  endfacet
  facet normal -5.035038e-17 3.061874e-17 -1.000000e+00
    outer loop
      vertex   1.022000e+01 -1.510921e-14 1.400000e+00
      vertex   3.956128e+00 -3.218549e+00 1.400000e+00
      vertex   4.677778e+00 -2.031846e+00 1.400000e+00
    endloop
  endfacet
  facet normal 0.000000e+00 0.000000e+00 -1.000000e+00
    outer loop
      vertex   -1.103722e+01 -1.987424e+00 1.400000e+00
      vertex   -1.122000e+01 -8.910555e-15 1.400000e+00
      vertex   -1.022000e+01 -1.739674e-15 1.400000e+00
    endloop
  endfacet
  facet normal -2.801991e-17 -3.000200e-17 -1.000000e+00
    outer loop
      vertex   3.956128e+00 3.218549e+00 1.400000e+00
      vertex   2.941070e+00 4.166546e+00 1.400000e+00
      vertex   6.950000e+00 7.650000e+00 1.400000e+00
    endloop
  endfacet
  facet normal 4.768762e-18 6.971683e-17 -1.000000e+00
    outer loop
      vertex   -1.037626e+00 -4.993329e+00 1.400000e+00
      vertex   3.480363e-01 -5.088111e+00 1.400000e+00
      vertex   6.950000e+00 -8.650000e+00 1.400000e+00
    endloop
  endfacet
  facet normal 0.000000e+00 5.929995e-17 -1.000000e+00
    outer loop
      vertex   6.950000e+00 -8.650000e+00 1.400000e+00
      vertex   -6.950000e+00 -8.650000e+00 1.400000e+00
      vertex   -1.037626e+00 -4.993329e+00 1.400000e+00
    endloop
  endfacet
  facet normal 4.235165e-17 5.821100e-18 -1.000000e+00
    outer loop
      vertex   -1.022000e+01 -1.739674e-15 1.400000e+00
      vertex   -5.100000e+00 0.000000e+00 1.400000e+00
      vertex   -4.910878e+00 -1.375964e+00 1.400000e+00
    endloop
  endfacet
  facet normal 4.235165e-17 -3.429009e-18 -1.000000e+00
    outer loop
      vertex   -5.100000e+00 0.000000e+00 1.400000e+00
      vertex   -1.022000e+01 -1.739674e-15 1.400000e+00
      vertex   -1.008215e+01 1.702612e+00 1.400000e+00
    endloop
  endfacet
  facet normal 4.157084e-17 -5.713781e-18 -1.000000e+00
    outer loop
      vertex   -1.008215e+01 1.702612e+00 1.400000e+00
      vertex   -4.910878e+00 1.375964e+00 1.400000e+00
      vertex   -5.100000e+00 0.000000e+00 1.400000e+00
    endloop
  endfacet
  facet normal 4.128701e-17 -1.020725e-17 -1.000000e+00
    outer loop
      vertex   -1.008215e+01 1.702612e+00 1.400000e+00
      vertex   -9.672182e+00 3.360869e+00 1.400000e+00
      vertex   -4.910878e+00 1.375964e+00 1.400000e+00
    endloop
  endfacet
  facet normal 3.855990e-17 -1.674893e-17 -1.000000e+00
    outer loop
      vertex   -4.357539e+00 2.649878e+00 1.400000e+00
      vertex   -4.910878e+00 1.375964e+00 1.400000e+00
      vertex   -9.672182e+00 3.360869e+00 1.400000e+00
    endloop
  endfacet
  facet normal -2.898544e-17 8.182232e-18 -1.000000e+00
    outer loop
      vertex   1.103722e+01 -1.987424e+00 1.400000e+00
      vertex   1.049502e+01 -3.908174e+00 1.400000e+00
      vertex   2.941070e+00 -4.166546e+00 1.400000e+00
    endloop
  endfacet
  facet normal -2.919858e-17 1.441363e-17 -1.000000e+00
    outer loop
      vertex   2.941070e+00 -4.166546e+00 1.400000e+00
      vertex   1.049502e+01 -3.908174e+00 1.400000e+00
      vertex   9.611578e+00 -5.697810e+00 1.400000e+00
    endloop
  endfacet
  facet normal 4.845430e-18 -7.083769e-17 -1.000000e+00
    outer loop
      vertex   3.480363e-01 5.088111e+00 1.400000e+00
      vertex   -1.037626e+00 4.993329e+00 1.400000e+00
      vertex   -6.950000e+00 7.650000e+00 1.400000e+00
    endloop
  endfacet
  facet normal 3.168959e-32 -8.464083e-17 -1.000000e+00
    outer loop
      vertex   -6.950000e+00 7.650000e+00 1.400000e+00
      vertex   6.950000e+00 7.650000e+00 1.400000e+00
      vertex   3.480363e-01 5.088111e+00 1.400000e+00
    endloop
  endfacet
  facet normal -1.145458e-17 -5.512248e-17 -1.000000e+00
    outer loop
      vertex   6.950000e+00 7.650000e+00 1.400000e+00
      vertex   1.707886e+00 4.805531e+00 1.400000e+00
      vertex   3.480363e-01 5.088111e+00 1.400000e+00
    endloop
  endfacet
  facet normal -2.020562e-17 -3.899507e-17 -1.000000e+00
    outer loop
      vertex   2.941070e+00 4.166546e+00 1.400000e+00
      vertex   1.707886e+00 4.805531e+00 1.400000e+00
      vertex   6.950000e+00 7.650000e+00 1.400000e+00
    endloop
  endfacet
  facet normal -7.695795e-17 8.240184e-17 -1.000000e+00
    outer loop
      vertex   1.022000e+01 -1.510921e-14 1.400000e+00
      vertex   2.941070e+00 -4.166546e+00 1.400000e+00
      vertex   3.956128e+00 -3.218549e+00 1.400000e+00
    endloop
  endfacet
  facet normal 0.000000e+00 -5.204321e-17 -1.000000e+00
    outer loop
      vertex   2.941070e+00 -4.166546e+00 1.400000e+00
      vertex   1.022000e+01 -1.510921e-14 1.400000e+00
      vertex   1.122000e+01 -1.505686e-14 1.400000e+00
    endloop
  endfacet
  facet normal -2.746295e-17 2.525701e-18 -1.000000e+00
    outer loop
      vertex   1.122000e+01 -1.505686e-14 1.400000e+00
      vertex   1.103722e+01 -1.987424e+00 1.400000e+00
      vertex   2.941070e+00 -4.166546e+00 1.400000e+00
    endloop
  endfacet
  facet normal -9.132925e-18 4.395005e-17 -1.000000e+00
    outer loop
      vertex   6.950000e+00 -8.650000e+00 1.400000e+00
      vertex   3.480363e-01 -5.088111e+00 1.400000e+00
      vertex   1.707886e+00 -4.805531e+00 1.400000e+00
    endloop
  endfacet
  facet normal -1.712583e-17 3.305135e-17 -1.000000e+00
    outer loop
      vertex   6.950000e+00 -8.650000e+00 1.400000e+00
      vertex   1.707886e+00 -4.805531e+00 1.400000e+00
      vertex   2.941070e+00 -4.166546e+00 1.400000e+00
    endloop
  endfacet
  facet normal -2.445726e-17 2.649587e-17 -1.000000e+00
    outer loop
      vertex   8.416542e+00 -7.296295e+00 1.400000e+00
      vertex   6.950000e+00 -8.650000e+00 1.400000e+00
      vertex   2.941070e+00 -4.166546e+00 1.400000e+00
    endloop
  endfacet
  facet normal -2.774566e-17 2.074282e-17 -1.000000e+00
    outer loop
      vertex   2.941070e+00 -4.166546e+00 1.400000e+00
      vertex   9.611578e+00 -5.697810e+00 1.400000e+00
      vertex   8.416542e+00 -7.296295e+00 1.400000e+00
    endloop
  endfacet
  facet normal 1.619719e-17 -4.557454e-17 -1.000000e+00
    outer loop
      vertex   -1.037626e+00 4.993329e+00 1.400000e+00
      vertex   -2.346332e+00 4.528215e+00 1.400000e+00
      vertex   -6.950000e+00 7.650000e+00 1.400000e+00
    endloop
  endfacet
  facet normal 2.402337e-17 -3.403335e-17 -1.000000e+00
    outer loop
      vertex   -6.950000e+00 7.650000e+00 1.400000e+00
      vertex   -2.346332e+00 4.528215e+00 1.400000e+00
      vertex   -3.481021e+00 3.727263e+00 1.400000e+00
    endloop
  endfacet
  facet normal 3.115937e-17 -2.772280e-17 -1.000000e+00
    outer loop
      vertex   -8.085440e+00 6.373808e+00 1.400000e+00
      vertex   -6.950000e+00 7.650000e+00 1.400000e+00
      vertex   -3.481021e+00 3.727263e+00 1.400000e+00
    endloop
  endfacet
  facet normal 3.208865e-17 -2.610605e-17 -1.000000e+00
    outer loop
      vertex   -8.085440e+00 6.373808e+00 1.400000e+00
      vertex   -3.481021e+00 3.727263e+00 1.400000e+00
      vertex   -4.357539e+00 2.649878e+00 1.400000e+00
    endloop
  endfacet
  facet normal 3.559799e-17 -2.259297e-17 -1.000000e+00
    outer loop
      vertex   -4.357539e+00 2.649878e+00 1.400000e+00
      vertex   -9.000783e+00 4.931574e+00 1.400000e+00
      vertex   -8.085440e+00 6.373808e+00 1.400000e+00
    endloop
  endfacet
  facet normal 3.859362e-17 -1.649688e-17 -1.000000e+00
    outer loop
      vertex   -9.672182e+00 3.360869e+00 1.400000e+00
      vertex   -9.000783e+00 4.931574e+00 1.400000e+00
      vertex   -4.357539e+00 2.649878e+00 1.400000e+00
    endloop
  endfacet
  facet normal -3.126043e-17 -2.781271e-17 -1.000000e+00
    outer loop
      vertex   6.950000e+00 7.650000e+00 1.400000e+00
      vertex   8.085440e+00 6.373808e+00 1.400000e+00
      vertex   3.956128e+00 3.218549e+00 1.400000e+00
    endloop
  endfacet
  facet normal -3.536291e-17 -2.244377e-17 -1.000000e+00
    outer loop
      vertex   3.956128e+00 3.218549e+00 1.400000e+00
      vertex   8.085440e+00 6.373808e+00 1.400000e+00
      vertex   9.000783e+00 4.931574e+00 1.400000e+00
    endloop
  endfacet
  facet normal -3.562722e-17 -2.166539e-17 -1.000000e+00
    outer loop
      vertex   9.000783e+00 4.931574e+00 1.400000e+00
      vertex   4.677778e+00 2.031846e+00 1.400000e+00
      vertex   3.956128e+00 3.218549e+00 1.400000e+00
    endloop
  endfacet
  facet normal -3.898257e-17 -1.666314e-17 -1.000000e+00
    outer loop
      vertex   9.000783e+00 4.931574e+00 1.400000e+00
      vertex   9.672182e+00 3.360869e+00 1.400000e+00
      vertex   4.677778e+00 2.031846e+00 1.400000e+00
    endloop
  endfacet
  facet normal -4.040420e-17 -1.132073e-17 -1.000000e+00
    outer loop
      vertex   5.052498e+00 6.944499e-01 1.400000e+00
      vertex   4.677778e+00 2.031846e+00 1.400000e+00
      vertex   9.672182e+00 3.360869e+00 1.400000e+00
    endloop
  endfacet
  facet normal -4.107687e-17 -1.015530e-17 -1.000000e+00
    outer loop
      vertex   9.672182e+00 3.360869e+00 1.400000e+00
      vertex   1.008215e+01 1.702612e+00 1.400000e+00
      vertex   5.052498e+00 6.944499e-01 1.400000e+00
    endloop
  endfacet
  facet normal -4.252933e-17 -2.909086e-18 -1.000000e+00
    outer loop
      vertex   5.100000e+00 1.873710e-15 1.400000e+00
      vertex   5.052498e+00 6.944499e-01 1.400000e+00
      vertex   1.008215e+01 1.702612e+00 1.400000e+00
    endloop
  endfacet
  facet normal -4.235165e-17 -3.429009e-18 -1.000000e+00
    outer loop
      vertex   1.008215e+01 1.702612e+00 1.400000e+00
      vertex   1.022000e+01 -1.510921e-14 1.400000e+00
      vertex   5.100000e+00 1.873710e-15 1.400000e+00
    endloop
  endfacet
  facet normal -4.235165e-17 2.896932e-18 -1.000000e+00
    outer loop
      vertex   1.022000e+01 -1.510921e-14 1.400000e+00
      vertex   5.052498e+00 -6.944499e-01 1.400000e+00
      vertex   5.100000e+00 1.873710e-15 1.400000e+00
    endloop
  endfacet
  facet normal -4.360420e-17 1.221732e-17 -1.000000e+00
    outer loop
      vertex   1.022000e+01 -1.510921e-14 1.400000e+00
      vertex   4.677778e+00 -2.031846e+00 1.400000e+00
      vertex   5.052498e+00 -6.944499e-01 1.400000e+00
    endloop
  endfacet
  facet normal 0.000000e+00 0.000000e+00 -1.000000e+00
    outer loop
      vertex   -1.022000e+01 -1.739674e-15 1.400000e+00
      vertex   -1.049502e+01 -3.908174e+00 1.400000e+00
      vertex   -1.103722e+01 -1.987424e+00 1.400000e+00
    endloop
  endfacet
  facet normal 4.011145e-17 -2.822636e-18 -1.000000e+00
    outer loop
      vertex   -4.910878e+00 -1.375964e+00 1.400000e+00
      vertex   -1.049502e+01 -3.908174e+00 1.400000e+00
      vertex   -1.022000e+01 -1.739674e-15 1.400000e+00
    endloop
  endfacet
  facet normal 3.172898e-17 1.566275e-17 -1.000000e+00
    outer loop
      vertex   -9.611578e+00 -5.697810e+00 1.400000e+00
      vertex   -1.049502e+01 -3.908174e+00 1.400000e+00
      vertex   -4.910878e+00 -1.375964e+00 1.400000e+00
    endloop
  endfacet
  facet normal 3.296478e-17 1.431862e-17 -1.000000e+00
    outer loop
      vertex   -4.910878e+00 -1.375964e+00 1.400000e+00
      vertex   -4.357539e+00 -2.649878e+00 1.400000e+00
      vertex   -9.611578e+00 -5.697810e+00 1.400000e+00
    endloop
  endfacet
  facet normal 2.878658e-17 2.152102e-17 -1.000000e+00
    outer loop
      vertex   -8.416542e+00 -7.296295e+00 1.400000e+00
      vertex   -9.611578e+00 -5.697810e+00 1.400000e+00
      vertex   -4.357539e+00 -2.649878e+00 1.400000e+00
    endloop
  endfacet
  facet normal 2.766124e-17 2.250409e-17 -1.000000e+00
    outer loop
      vertex   -4.357539e+00 -2.649878e+00 1.400000e+00
      vertex   -3.481021e+00 -3.727263e+00 1.400000e+00
      vertex   -8.416542e+00 -7.296295e+00 1.400000e+00
    endloop
  endfacet
  facet normal 2.463523e-17 2.668868e-17 -1.000000e+00
    outer loop
      vertex   -3.481021e+00 -3.727263e+00 1.400000e+00
      vertex   -6.950000e+00 -8.650000e+00 1.400000e+00
      vertex   -8.416542e+00 -7.296295e+00 1.400000e+00
    endloop
  endfacet
  facet normal 2.076437e-17 2.941641e-17 -1.000000e+00
    outer loop
      vertex   -3.481021e+00 -3.727263e+00 1.400000e+00
      vertex   -2.346332e+00 -4.528215e+00 1.400000e+00
      vertex   -6.950000e+00 -8.650000e+00 1.400000e+00
    endloop
  endfacet
  facet normal 1.338417e-17 3.765945e-17 -1.000000e+00
    outer loop
      vertex   -2.346332e+00 -4.528215e+00 1.400000e+00
      vertex   -1.037626e+00 -4.993329e+00 1.400000e+00
      vertex   -6.950000e+00 -8.650000e+00 1.400000e+00
    endloop
  endfacet
  facet normal 5.235021e-17 -1.000000e+00 -9.531616e-16
    outer loop
      vertex   1.122000e+01 -1.372243e-14 0.000000e+00
      vertex   1.122000e+01 -1.505686e-14 1.400000e+00
      vertex   1.022000e+01 -1.510921e-14 1.400000e+00
    endloop
  endfacet
  facet normal 1.386776e-15 -1.000000e+00 0.000000e+00
    outer loop
      vertex   1.022000e+01 -1.510921e-14 1.400000e+00
      vertex   1.022000e+01 -1.510921e-14 0.000000e+00
      vertex   1.122000e+01 -1.372243e-14 0.000000e+00
    endloop
  endfacet
  facet normal -7.471047e-01 -6.647063e-01 1.751452e-16
    outer loop
      vertex   8.085440e+00 6.373808e+00 1.400000e+00
      vertex   6.950000e+00 7.650000e+00 1.400000e+00
      vertex   6.950000e+00 7.650000e+00 0.000000e+00
    endloop
  endfacet
  facet normal -7.471047e-01 -6.647063e-01 1.751452e-16
    outer loop
      vertex   6.950000e+00 7.650000e+00 0.000000e+00
      vertex   8.085440e+00 6.373808e+00 0.000000e+00
      vertex   8.085440e+00 6.373808e+00 1.400000e+00
    endloop
  endfacet
  facet normal -8.443086e-01 -5.358572e-01 -8.757259e-17
    outer loop
      vertex   9.000783e+00 4.931574e+00 1.400000e+00
      vertex   8.085440e+00 6.373808e+00 1.400000e+00
      vertex   8.085440e+00 6.373808e+00 0.000000e+00
    endloop
  endfacet
  facet normal -8.443086e-01 -5.358572e-01 -8.757259e-17
    outer loop
      vertex   8.085440e+00 6.373808e+00 0.000000e+00
      vertex   9.000783e+00 4.931574e+00 0.000000e+00
      vertex   9.000783e+00 4.931574e+00 1.400000e+00
    endloop
  endfacet
  facet normal -9.195176e-01 -3.930487e-01 -8.757259e-17
    outer loop
      vertex   9.672182e+00 3.360869e+00 1.400000e+00
      vertex   9.000783e+00 4.931574e+00 1.400000e+00
      vertex   9.000783e+00 4.931574e+00 0.000000e+00
    endloop
  endfacet
  facet normal -9.195176e-01 -3.930487e-01 -8.757259e-17
    outer loop
      vertex   9.000783e+00 4.931574e+00 0.000000e+00
      vertex   9.672182e+00 3.360869e+00 0.000000e+00
      vertex   9.672182e+00 3.360869e+00 1.400000e+00
    endloop
  endfacet
  facet normal -9.707726e-01 -2.400010e-01 4.378630e-17
    outer loop
      vertex   1.008215e+01 1.702612e+00 1.400000e+00
      vertex   9.672182e+00 3.360869e+00 1.400000e+00
      vertex   9.672182e+00 3.360869e+00 0.000000e+00
    endloop
  endfacet
  facet normal -9.707726e-01 -2.400010e-01 4.378630e-17
    outer loop
      vertex   9.672182e+00 3.360869e+00 0.000000e+00
      vertex   1.008215e+01 1.702612e+00 0.000000e+00
      vertex   1.008215e+01 1.702612e+00 1.400000e+00
    endloop
  endfacet
  facet normal -9.967383e-01 -8.070111e-02 0.000000e+00
    outer loop
      vertex   1.022000e+01 -1.510921e-14 1.400000e+00
      vertex   1.008215e+01 1.702612e+00 1.400000e+00
      vertex   1.008215e+01 1.702612e+00 0.000000e+00
    endloop
  endfacet
  facet normal -9.967383e-01 -8.070111e-02 0.000000e+00
    outer loop
      vertex   1.008215e+01 1.702612e+00 0.000000e+00
      vertex   1.022000e+01 -1.510921e-14 0.000000e+00
      vertex   1.022000e+01 -1.510921e-14 1.400000e+00
    endloop
  endfacet
  facet normal 3.744008e-16 -1.000000e+00 0.000000e+00
    outer loop
      vertex   6.950000e+00 7.650000e+00 0.000000e+00
      vertex   6.950000e+00 7.650000e+00 1.400000e+00
      vertex   -6.950000e+00 7.650000e+00 1.400000e+00
    endloop
  endfacet
  facet normal 3.744008e-16 -1.000000e+00 0.000000e+00
    outer loop
      vertex   -6.950000e+00 7.650000e+00 1.400000e+00
      vertex   -6.950000e+00 7.650000e+00 0.000000e+00
      vertex   6.950000e+00 7.650000e+00 0.000000e+00
    endloop
  endfacet
  facet normal 9.967383e-01 -8.070111e-02 0.000000e+00
    outer loop
      vertex   -1.008215e+01 1.702612e+00 1.400000e+00
      vertex   -1.022000e+01 -1.739674e-15 1.400000e+00
      vertex   -1.022000e+01 -1.739674e-15 0.000000e+00
    endloop
  endfacet
  facet normal 9.967383e-01 -8.070111e-02 0.000000e+00
    outer loop
      vertex   -1.022000e+01 -1.739674e-15 0.000000e+00
      vertex   -1.008215e+01 1.702612e+00 0.000000e+00
      vertex   -1.008215e+01 1.702612e+00 1.400000e+00
    endloop
  endfacet
  facet normal 9.707726e-01 -2.400010e-01 0.000000e+00
    outer loop
      vertex   -9.672182e+00 3.360869e+00 1.400000e+00
      vertex   -1.008215e+01 1.702612e+00 1.400000e+00
      vertex   -1.008215e+01 1.702612e+00 0.000000e+00
    endloop
  endfacet
  facet normal 9.707726e-01 -2.400010e-01 0.000000e+00
    outer loop
      vertex   -1.008215e+01 1.702612e+00 0.000000e+00
      vertex   -9.672182e+00 3.360869e+00 0.000000e+00
      vertex   -9.672182e+00 3.360869e+00 1.400000e+00
    endloop
  endfacet
  facet normal 9.195176e-01 -3.930487e-01 -8.757259e-17
    outer loop
      vertex   -9.000783e+00 4.931574e+00 1.400000e+00
      vertex   -9.672182e+00 3.360869e+00 1.400000e+00
      vertex   -9.672182e+00 3.360869e+00 0.000000e+00
    endloop
  endfacet
  facet normal 9.195176e-01 -3.930487e-01 -8.757259e-17
    outer loop
      vertex   -9.672182e+00 3.360869e+00 0.000000e+00
      vertex   -9.000783e+00 4.931574e+00 0.000000e+00
      vertex   -9.000783e+00 4.931574e+00 1.400000e+00
    endloop
  endfacet
  facet normal 8.443086e-01 -5.358572e-01 0.000000e+00
    outer loop
      vertex   -8.085440e+00 6.373808e+00 1.400000e+00
      vertex   -9.000783e+00 4.931574e+00 1.400000e+00
      vertex   -9.000783e+00 4.931574e+00 0.000000e+00
    endloop
  endfacet
  facet normal 8.443086e-01 -5.358572e-01 0.000000e+00
    outer loop
      vertex   -9.000783e+00 4.931574e+00 0.000000e+00
      vertex   -8.085440e+00 6.373808e+00 0.000000e+00
      vertex   -8.085440e+00 6.373808e+00 1.400000e+00
    endloop
  endfacet
  facet normal 7.471047e-01 -6.647063e-01 0.000000e+00
    outer loop
      vertex   -6.950000e+00 7.650000e+00 1.400000e+00
      vertex   -8.085440e+00 6.373808e+00 1.400000e+00
      vertex   -8.085440e+00 6.373808e+00 0.000000e+00
    endloop
  endfacet
  facet normal 7.471047e-01 -6.647063e-01 0.000000e+00
    outer loop
      vertex   -8.085440e+00 6.373808e+00 0.000000e+00
      vertex   -6.950000e+00 7.650000e+00 0.000000e+00
      vertex   -6.950000e+00 7.650000e+00 1.400000e+00
    endloop
  endfacet
  facet normal 7.170881e-15 -1.000000e+00 0.000000e+00
    outer loop
      vertex   -1.022000e+01 -1.739674e-15 0.000000e+00
      vertex   -1.022000e+01 -1.739674e-15 1.400000e+00
      vertex   -1.122000e+01 -8.910555e-15 1.400000e+00
    endloop
  endfacet
  facet normal 7.170881e-15 -1.000000e+00 0.000000e+00
    outer loop
      vertex   -1.122000e+01 -8.910555e-15 1.400000e+00
      vertex   -1.122000e+01 -8.910555e-15 0.000000e+00
      vertex   -1.022000e+01 -1.739674e-15 0.000000e+00
    endloop
  endfacet
  facet normal 0.000000e+00 0.000000e+00 -1.000000e+00
    outer loop
      vertex   -1.008215e+01 1.702612e+00 0.000000e+00
      vertex   -1.022000e+01 -1.739674e-15 0.000000e+00
      vertex   -1.122000e+01 -8.910555e-15 0.000000e+00
    endloop
  endfacet
  facet normal 0.000000e+00 0.000000e+00 -1.000000e+00
    outer loop
      vertex   -1.122000e+01 -8.910555e-15 0.000000e+00
      vertex   -1.103722e+01 1.987424e+00 0.000000e+00
      vertex   -1.008215e+01 1.702612e+00 0.000000e+00
    endloop
  endfacet
  facet normal 0.000000e+00 0.000000e+00 -1.000000e+00
    outer loop
      vertex   -9.672182e+00 3.360869e+00 0.000000e+00
      vertex   -1.008215e+01 1.702612e+00 0.000000e+00
      vertex   -1.103722e+01 1.987424e+00 0.000000e+00
    endloop
  endfacet
  facet normal 0.000000e+00 0.000000e+00 -1.000000e+00
    outer loop
      vertex   -1.103722e+01 1.987424e+00 0.000000e+00
      vertex   -1.049502e+01 3.908174e+00 0.000000e+00
      vertex   -9.672182e+00 3.360869e+00 0.000000e+00
    endloop
  endfacet
  facet normal 0.000000e+00 0.000000e+00 -1.000000e+00
    outer loop
      vertex   -9.000783e+00 4.931574e+00 0.000000e+00
      vertex   -9.672182e+00 3.360869e+00 0.000000e+00
      vertex   -1.049502e+01 3.908174e+00 0.000000e+00
    endloop
  endfacet
  facet normal 0.000000e+00 0.000000e+00 -1.000000e+00
    outer loop
      vertex   -1.049502e+01 3.908174e+00 0.000000e+00
      vertex   -9.611578e+00 5.697810e+00 0.000000e+00
      vertex   -9.000783e+00 4.931574e+00 0.000000e+00
    endloop
  endfacet
  facet normal 0.000000e+00 0.000000e+00 -1.000000e+00
    outer loop
      vertex   -8.085440e+00 6.373808e+00 0.000000e+00
      vertex   -9.000783e+00 4.931574e+00 0.000000e+00
      vertex   -9.611578e+00 5.697810e+00 0.000000e+00
    endloop
  endfacet
  facet normal 0.000000e+00 0.000000e+00 -1.000000e+00
    outer loop
      vertex   -9.611578e+00 5.697810e+00 0.000000e+00
      vertex   -8.416542e+00 7.296295e+00 0.000000e+00
      vertex   -8.085440e+00 6.373808e+00 0.000000e+00
    endloop
  endfacet
  facet normal 0.000000e+00 0.000000e+00 -1.000000e+00
    outer loop
      vertex   -6.950000e+00 7.650000e+00 0.000000e+00
      vertex   -8.085440e+00 6.373808e+00 0.000000e+00
      vertex   -8.416542e+00 7.296295e+00 0.000000e+00
    endloop
  endfacet
  facet normal 0.000000e+00 0.000000e+00 -1.000000e+00
    outer loop
      vertex   -8.416542e+00 7.296295e+00 0.000000e+00
      vertex   -6.950000e+00 8.650000e+00 0.000000e+00
      vertex   -6.950000e+00 7.650000e+00 0.000000e+00
    endloop
  endfacet
  facet normal -0.000000e+00 0.000000e+00 -1.000000e+00
    outer loop
      vertex   6.950000e+00 7.650000e+00 0.000000e+00
      vertex   -6.950000e+00 7.650000e+00 0.000000e+00
      vertex   -6.950000e+00 8.650000e+00 0.000000e+00
    endloop
  endfacet
  facet normal 0.000000e+00 0.000000e+00 -1.000000e+00
    outer loop
      vertex   -6.950000e+00 8.650000e+00 0.000000e+00
      vertex   6.950000e+00 8.650000e+00 0.000000e+00
      vertex   6.950000e+00 7.650000e+00 0.000000e+00
    endloop
  endfacet
  facet normal 0.000000e+00 0.000000e+00 -1.000000e+00
    outer loop
      vertex   8.085440e+00 6.373808e+00 0.000000e+00
      vertex   6.950000e+00 7.650000e+00 0.000000e+00
      vertex   6.950000e+00 8.650000e+00 0.000000e+00
    endloop
  endfacet
  facet normal 0.000000e+00 0.000000e+00 -1.000000e+00
    outer loop
      vertex   6.950000e+00 8.650000e+00 0.000000e+00
      vertex   8.416542e+00 7.296295e+00 0.000000e+00
      vertex   8.085440e+00 6.373808e+00 0.000000e+00
    endloop
  endfacet
  facet normal 0.000000e+00 0.000000e+00 -1.000000e+00
    outer loop
      vertex   9.000783e+00 4.931574e+00 0.000000e+00
      vertex   8.085440e+00 6.373808e+00 0.000000e+00
      vertex   8.416542e+00 7.296295e+00 0.000000e+00
    endloop
  endfacet
  facet normal 0.000000e+00 0.000000e+00 -1.000000e+00
    outer loop
      vertex   8.416542e+00 7.296295e+00 0.000000e+00
      vertex   9.611578e+00 5.697810e+00 0.000000e+00
      vertex   9.000783e+00 4.931574e+00 0.000000e+00
    endloop
  endfacet
  facet normal 0.000000e+00 0.000000e+00 -1.000000e+00
    outer loop
      vertex   9.672182e+00 3.360869e+00 0.000000e+00
      vertex   9.000783e+00 4.931574e+00 0.000000e+00
      vertex   9.611578e+00 5.697810e+00 0.000000e+00
    endloop
  endfacet
  facet normal 0.000000e+00 0.000000e+00 -1.000000e+00
    outer loop
      vertex   9.611578e+00 5.697810e+00 0.000000e+00
      vertex   1.049502e+01 3.908174e+00 0.000000e+00
      vertex   9.672182e+00 3.360869e+00 0.000000e+00
    endloop
  endfacet
  facet normal 0.000000e+00 0.000000e+00 -1.000000e+00
    outer loop
      vertex   1.008215e+01 1.702612e+00 0.000000e+00
      vertex   9.672182e+00 3.360869e+00 0.000000e+00
      vertex   1.049502e+01 3.908174e+00 0.000000e+00
    endloop
  endfacet
  facet normal 0.000000e+00 -0.000000e+00 -1.000000e+00
    outer loop
      vertex   1.049502e+01 3.908174e+00 0.000000e+00
      vertex   1.103722e+01 1.987424e+00 0.000000e+00
      vertex   1.008215e+01 1.702612e+00 0.000000e+00
    endloop
  endfacet
  facet normal 0.000000e+00 0.000000e+00 -1.000000e+00
    outer loop
      vertex   1.022000e+01 -1.510921e-14 0.000000e+00
      vertex   1.008215e+01 1.702612e+00 0.000000e+00
      vertex   1.103722e+01 1.987424e+00 0.000000e+00
    endloop
  endfacet
  facet normal 0.000000e+00 -0.000000e+00 -1.000000e+00
    outer loop
      vertex   1.103722e+01 1.987424e+00 0.000000e+00
      vertex   1.122000e+01 -1.372243e-14 0.000000e+00
      vertex   1.022000e+01 -1.510921e-14 0.000000e+00
    endloop
  endfacet
  facet normal -6.782731e-01 7.348099e-01 -2.002767e-15
    outer loop
      vertex   -6.950000e+00 8.650000e+00 9.400000e+00
      vertex   -6.950000e+00 8.650000e+00 0.000000e+00
      vertex   -8.416542e+00 7.296295e+00 0.000000e+00
    endloop
  endfacet
  facet normal -9.957976e-01 9.158109e-02 0.000000e+00
    outer loop
      vertex   -1.103722e+01 1.987424e+00 0.000000e+00
      vertex   -1.122000e+01 -8.910555e-15 0.000000e+00
      vertex   -1.122000e+01 -8.910555e-15 1.400000e+00
    endloop
  endfacet
  facet normal -6.782731e-01 7.348099e-01 0.000000e+00
    outer loop
      vertex   -8.416542e+00 7.296295e+00 0.000000e+00
      vertex   -8.416542e+00 7.296295e+00 9.400000e+00
      vertex   -6.950000e+00 8.650000e+00 9.400000e+00
    endloop
  endfacet
  facet normal -8.009194e-01 5.987721e-01 0.000000e+00
    outer loop
      vertex   -8.416542e+00 7.296295e+00 9.400000e+00
      vertex   -8.416542e+00 7.296295e+00 0.000000e+00
      vertex   -9.611578e+00 5.697810e+00 0.000000e+00
    endloop
  endfacet
  facet normal -8.009194e-01 5.987721e-01 0.000000e+00
    outer loop
      vertex   -9.611578e+00 5.697810e+00 0.000000e+00
      vertex   -9.611578e+00 5.697810e+00 9.400000e+00
      vertex   -8.416542e+00 7.296295e+00 9.400000e+00
    endloop
  endfacet
  facet normal -8.966962e-01 4.426466e-01 0.000000e+00
    outer loop
      vertex   -9.611578e+00 5.697810e+00 9.400000e+00
      vertex   -9.611578e+00 5.697810e+00 0.000000e+00
      vertex   -1.049502e+01 3.908174e+00 0.000000e+00
    endloop
  endfacet
  facet normal -8.966962e-01 4.426466e-01 0.000000e+00
    outer loop
      vertex   -1.049502e+01 3.908174e+00 0.000000e+00
      vertex   -1.049502e+01 3.908174e+00 9.400000e+00
      vertex   -9.611578e+00 5.697810e+00 9.400000e+00
    endloop
  endfacet
  facet normal -9.623902e-01 2.716709e-01 0.000000e+00
    outer loop
      vertex   -1.049502e+01 3.908174e+00 9.400000e+00
      vertex   -1.049502e+01 3.908174e+00 0.000000e+00
      vertex   -1.103722e+01 1.987424e+00 0.000000e+00
    endloop
  endfacet
  facet normal -9.623902e-01 2.716709e-01 0.000000e+00
    outer loop
      vertex   -1.103722e+01 1.987424e+00 0.000000e+00
      vertex   -1.103722e+01 1.987424e+00 9.400000e+00
      vertex   -1.049502e+01 3.908174e+00 9.400000e+00
    endloop
  endfacet
  facet normal -9.957976e-01 9.158109e-02 0.000000e+00
    outer loop
      vertex   -1.103722e+01 1.987424e+00 9.400000e+00
      vertex   -1.103722e+01 1.987424e+00 0.000000e+00
      vertex   -1.122000e+01 -8.910555e-15 1.400000e+00
    endloop
  endfacet
  facet normal -9.957976e-01 9.158109e-02 1.012230e-16
    outer loop
      vertex   -1.122000e+01 -8.910555e-15 1.400000e+00
      vertex   -1.122000e+01 -1.775282e-14 9.400000e+00
      vertex   -1.103722e+01 1.987424e+00 9.400000e+00
    endloop
  endfacet
  facet normal -9.957976e-01 -9.158109e-02 -1.012230e-16
    outer loop
      vertex   -1.122000e+01 -1.775282e-14 9.400000e+00
      vertex   -1.122000e+01 -8.910555e-15 1.400000e+00
      vertex   -1.103722e+01 -1.987424e+00 1.400000e+00
    endloop
  endfacet
  facet normal -9.957976e-01 -9.158109e-02 0.000000e+00
    outer loop
      vertex   -1.103722e+01 -1.987424e+00 1.400000e+00
      vertex   -1.103722e+01 -1.987424e+00 9.400000e+00
      vertex   -1.122000e+01 -1.775282e-14 9.400000e+00
    endloop
  endfacet
  facet normal -9.623902e-01 -2.716709e-01 -0.000000e+00
    outer loop
      vertex   -1.103722e+01 -1.987424e+00 9.400000e+00
      vertex   -1.103722e+01 -1.987424e+00 1.400000e+00
      vertex   -1.049502e+01 -3.908174e+00 1.400000e+00
    endloop
  endfacet
  facet normal -9.623902e-01 -2.716709e-01 0.000000e+00
    outer loop
      vertex   -1.049502e+01 -3.908174e+00 1.400000e+00
      vertex   -1.049502e+01 -3.908174e+00 9.400000e+00
      vertex   -1.103722e+01 -1.987424e+00 9.400000e+00
    endloop
  endfacet
  facet normal -8.966962e-01 -4.426466e-01 -0.000000e+00
    outer loop
      vertex   -1.049502e+01 -3.908174e+00 9.400000e+00
      vertex   -1.049502e+01 -3.908174e+00 1.400000e+00
      vertex   -9.611578e+00 -5.697810e+00 1.400000e+00
    endloop
  endfacet
  facet normal -8.966962e-01 -4.426466e-01 0.000000e+00
    outer loop
      vertex   -9.611578e+00 -5.697810e+00 1.400000e+00
      vertex   -9.611578e+00 -5.697810e+00 9.400000e+00
      vertex   -1.049502e+01 -3.908174e+00 9.400000e+00
    endloop
  endfacet
  facet normal -8.009194e-01 -5.987721e-01 -0.000000e+00
    outer loop
      vertex   -9.611578e+00 -5.697810e+00 9.400000e+00
      vertex   -9.611578e+00 -5.697810e+00 1.400000e+00
      vertex   -8.416542e+00 -7.296295e+00 1.400000e+00
    endloop
  endfacet
  facet normal -8.009194e-01 -5.987721e-01 0.000000e+00
    outer loop
      vertex   -8.416542e+00 -7.296295e+00 1.400000e+00
      vertex   -8.416542e+00 -7.296295e+00 9.400000e+00
      vertex   -9.611578e+00 -5.697810e+00 9.400000e+00
    endloop
  endfacet
  facet normal -6.782731e-01 -7.348099e-01 -0.000000e+00
    outer loop
      vertex   -8.416542e+00 -7.296295e+00 9.400000e+00
      vertex   -8.416542e+00 -7.296295e+00 1.400000e+00
      vertex   -6.950000e+00 -8.650000e+00 1.400000e+00
    endloop
  endfacet
  facet normal -6.782731e-01 -7.348099e-01 -7.353852e-17
    outer loop
      vertex   -6.950000e+00 -8.650000e+00 1.400000e+00
      vertex   -6.950000e+00 -8.650000e+00 9.400000e+00
      vertex   -8.416542e+00 -7.296295e+00 9.400000e+00
    endloop
  endfacet
  facet normal 9.957976e-01 9.158109e-02 1.321173e-15
    outer loop
      vertex   1.122000e+01 -1.505686e-14 1.400000e+00
      vertex   1.122000e+01 -1.372243e-14 0.000000e+00
      vertex   1.103722e+01 1.987424e+00 0.000000e+00
    endloop
  endfacet
  facet normal 6.782731e-01 -7.348099e-01 -2.353251e-15
    outer loop
      vertex   6.950000e+00 -8.650000e+00 9.400000e+00
      vertex   6.950000e+00 -8.650000e+00 1.400000e+00
      vertex   8.416542e+00 -7.296295e+00 1.400000e+00
    endloop
  endfacet
  facet normal 6.782731e-01 -7.348099e-01 0.000000e+00
    outer loop
      vertex   8.416542e+00 -7.296295e+00 1.400000e+00
      vertex   8.416542e+00 -7.296295e+00 9.400000e+00
      vertex   6.950000e+00 -8.650000e+00 9.400000e+00
    endloop
  endfacet
  facet normal 8.009194e-01 -5.987721e-01 0.000000e+00
    outer loop
      vertex   8.416542e+00 -7.296295e+00 9.400000e+00
      vertex   8.416542e+00 -7.296295e+00 1.400000e+00
      vertex   9.611578e+00 -5.697810e+00 1.400000e+00
    endloop
  endfacet
  facet normal 8.009194e-01 -5.987721e-01 0.000000e+00
    outer loop
      vertex   9.611578e+00 -5.697810e+00 1.400000e+00
      vertex   9.611578e+00 -5.697810e+00 9.400000e+00
      vertex   8.416542e+00 -7.296295e+00 9.400000e+00
    endloop
  endfacet
  facet normal 8.966962e-01 -4.426466e-01 0.000000e+00
    outer loop
      vertex   9.611578e+00 -5.697810e+00 9.400000e+00
      vertex   9.611578e+00 -5.697810e+00 1.400000e+00
      vertex   1.049502e+01 -3.908174e+00 1.400000e+00
    endloop
  endfacet
  facet normal 8.966962e-01 -4.426466e-01 0.000000e+00
    outer loop
      vertex   1.049502e+01 -3.908174e+00 1.400000e+00
      vertex   1.049502e+01 -3.908174e+00 9.400000e+00
      vertex   9.611578e+00 -5.697810e+00 9.400000e+00
    endloop
  endfacet
  facet normal 9.623902e-01 -2.716709e-01 0.000000e+00
    outer loop
      vertex   1.049502e+01 -3.908174e+00 9.400000e+00
      vertex   1.049502e+01 -3.908174e+00 1.400000e+00
      vertex   1.103722e+01 -1.987424e+00 1.400000e+00
    endloop
  endfacet
  facet normal 9.623902e-01 -2.716709e-01 0.000000e+00
    outer loop
      vertex   1.103722e+01 -1.987424e+00 1.400000e+00
      vertex   1.103722e+01 -1.987424e+00 9.400000e+00
      vertex   1.049502e+01 -3.908174e+00 9.400000e+00
    endloop
  endfacet
  facet normal 9.957976e-01 -9.158109e-02 0.000000e+00
    outer loop
      vertex   1.103722e+01 -1.987424e+00 9.400000e+00
      vertex   1.103722e+01 -1.987424e+00 1.400000e+00
      vertex   1.122000e+01 -1.505686e-14 1.400000e+00
    endloop
  endfacet
  facet normal 9.957976e-01 -9.158109e-02 -3.446847e-17
    outer loop
      vertex   1.122000e+01 -1.505686e-14 1.400000e+00
      vertex   1.122000e+01 7.945120e-16 9.400000e+00
      vertex   1.103722e+01 -1.987424e+00 9.400000e+00
    endloop
  endfacet
  facet normal 9.957976e-01 9.158109e-02 -3.973899e-16
    outer loop
      vertex   1.122000e+01 7.945120e-16 9.400000e+00
      vertex   1.122000e+01 -1.505686e-14 1.400000e+00
      vertex   1.103722e+01 1.987424e+00 0.000000e+00
    endloop
  endfacet
  facet normal 9.957976e-01 9.158109e-02 -0.000000e+00
    outer loop
      vertex   1.103722e+01 1.987424e+00 0.000000e+00
      vertex   1.103722e+01 1.987424e+00 9.400000e+00
      vertex   1.122000e+01 7.945120e-16 9.400000e+00
    endloop
  endfacet
  facet normal 9.623902e-01 2.716709e-01 0.000000e+00
    outer loop
      vertex   1.103722e+01 1.987424e+00 9.400000e+00
      vertex   1.103722e+01 1.987424e+00 0.000000e+00
      vertex   1.049502e+01 3.908174e+00 0.000000e+00
    endloop
  endfacet
  facet normal 9.623902e-01 2.716709e-01 -0.000000e+00
    outer loop
      vertex   1.049502e+01 3.908174e+00 0.000000e+00
      vertex   1.049502e+01 3.908174e+00 9.400000e+00
      vertex   1.103722e+01 1.987424e+00 9.400000e+00
    endloop
  endfacet
  facet normal 8.966962e-01 4.426466e-01 0.000000e+00
    outer loop
      vertex   1.049502e+01 3.908174e+00 9.400000e+00
      vertex   1.049502e+01 3.908174e+00 0.000000e+00
      vertex   9.611578e+00 5.697810e+00 0.000000e+00
    endloop
  endfacet
  facet normal 8.966962e-01 4.426466e-01 -0.000000e+00
    outer loop
      vertex   9.611578e+00 5.697810e+00 0.000000e+00
      vertex   9.611578e+00 5.697810e+00 9.400000e+00
      vertex   1.049502e+01 3.908174e+00 9.400000e+00
    endloop
  endfacet
  facet normal 8.009194e-01 5.987721e-01 0.000000e+00
    outer loop
      vertex   9.611578e+00 5.697810e+00 9.400000e+00
      vertex   9.611578e+00 5.697810e+00 0.000000e+00
      vertex   8.416542e+00 7.296295e+00 0.000000e+00
    endloop
  endfacet
  facet normal 8.009194e-01 5.987721e-01 -0.000000e+00
    outer loop
      vertex   8.416542e+00 7.296295e+00 0.000000e+00
      vertex   8.416542e+00 7.296295e+00 9.400000e+00
      vertex   9.611578e+00 5.697810e+00 9.400000e+00
    endloop
  endfacet
  facet normal 6.782731e-01 7.348099e-01 0.000000e+00
    outer loop
      vertex   8.416542e+00 7.296295e+00 9.400000e+00
      vertex   8.416542e+00 7.296295e+00 0.000000e+00
      vertex   6.950000e+00 8.650000e+00 0.000000e+00
    endloop
  endfacet
  facet normal 6.782731e-01 7.348099e-01 -0.000000e+00
    outer loop
      vertex   6.950000e+00 8.650000e+00 0.000000e+00
      vertex   6.950000e+00 8.650000e+00 9.400000e+00
      vertex   8.416542e+00 7.296295e+00 9.400000e+00
    endloop
  endfacet
  facet normal 3.744008e-16 1.000000e+00 -1.107270e-15
    outer loop
      vertex   -6.950000e+00 8.650000e+00 0.000000e+00
      vertex   -6.950000e+00 8.650000e+00 9.400000e+00
      vertex   6.950000e+00 8.650000e+00 9.400000e+00
    endloop
  endfacet
  facet normal -3.744008e-16 1.000000e+00 0.000000e+00
    outer loop
      vertex   6.950000e+00 8.650000e+00 9.400000e+00
      vertex   6.950000e+00 8.650000e+00 0.000000e+00
      vertex   -6.950000e+00 8.650000e+00 0.000000e+00
    endloop
  endfacet
  facet normal -7.488015e-16 -1.000000e+00 -1.301043e-15
    outer loop
      vertex   6.950000e+00 -8.650000e+00 1.400000e+00
      vertex   6.950000e+00 -8.650000e+00 9.400000e+00
      vertex   -6.950000e+00 -8.650000e+00 9.400000e+00
    endloop
  endfacet
  facet normal 0.000000e+00 -1.000000e+00 0.000000e+00
    outer loop
      vertex   -6.950000e+00 -8.650000e+00 9.400000e+00
      vertex   -6.950000e+00 -8.650000e+00 1.400000e+00
      vertex   6.950000e+00 -8.650000e+00 1.400000e+00
    endloop
  endfacet
  facet normal 0.000000e+00 0.000000e+00 1.000000e+00
    outer loop
      vertex   8.416542e+00 -7.296295e+00 9.400000e+00
      vertex   -8.416542e+00 7.296295e+00 9.400000e+00
      vertex   -9.611578e+00 5.697810e+00 9.400000e+00
    endloop
  endfacet
  facet normal 0.000000e+00 0.000000e+00 1.000000e+00
    outer loop
      vertex   8.416542e+00 -7.296295e+00 9.400000e+00
      vertex   -9.611578e+00 5.697810e+00 9.400000e+00
      vertex   -1.049502e+01 3.908174e+00 9.400000e+00
    endloop
  endfacet
  facet normal 0.000000e+00 0.000000e+00 1.000000e+00
    outer loop
      vertex   -8.416542e+00 7.296295e+00 9.400000e+00
      vertex   8.416542e+00 -7.296295e+00 9.400000e+00
      vertex   9.611578e+00 -5.697810e+00 9.400000e+00
    endloop
  endfacet
  facet normal 0.000000e+00 -0.000000e+00 1.000000e+00
    outer loop
      vertex   9.611578e+00 -5.697810e+00 9.400000e+00
      vertex   1.049502e+01 -3.908174e+00 9.400000e+00
      vertex   -8.416542e+00 7.296295e+00 9.400000e+00
    endloop
  endfacet
  facet normal 0.000000e+00 0.000000e+00 1.000000e+00
    outer loop
      vertex   -8.416542e+00 7.296295e+00 9.400000e+00
      vertex   1.049502e+01 -3.908174e+00 9.400000e+00
      vertex   1.103722e+01 -1.987424e+00 9.400000e+00
    endloop
  endfacet
  facet normal 0.000000e+00 -0.000000e+00 1.000000e+00
    outer loop
      vertex   1.103722e+01 -1.987424e+00 9.400000e+00
      vertex   1.122000e+01 7.945120e-16 9.400000e+00
      vertex   -8.416542e+00 7.296295e+00 9.400000e+00
    endloop
  endfacet
  facet normal 0.000000e+00 0.000000e+00 1.000000e+00
    outer loop
      vertex   -8.416542e+00 7.296295e+00 9.400000e+00
      vertex   1.122000e+01 7.945120e-16 9.400000e+00
      vertex   1.103722e+01 1.987424e+00 9.400000e+00
    endloop
  endfacet
  facet normal 0.000000e+00 0.000000e+00 1.000000e+00
    outer loop
      vertex   -8.416542e+00 7.296295e+00 9.400000e+00
      vertex   1.103722e+01 1.987424e+00 9.400000e+00
      vertex   1.049502e+01 3.908174e+00 9.400000e+00
    endloop
  endfacet
  facet normal 0.000000e+00 0.000000e+00 1.000000e+00
    outer loop
      vertex   8.416542e+00 7.296295e+00 9.400000e+00
      vertex   6.950000e+00 8.650000e+00 9.400000e+00
      vertex   -6.950000e+00 8.650000e+00 9.400000e+00
    endloop
  endfacet
  facet normal 0.000000e+00 0.000000e+00 1.000000e+00
    outer loop
      vertex   -6.950000e+00 8.650000e+00 9.400000e+00
      vertex   -8.416542e+00 7.296295e+00 9.400000e+00
      vertex   8.416542e+00 7.296295e+00 9.400000e+00
    endloop
  endfacet
  facet normal -0.000000e+00 0.000000e+00 1.000000e+00
    outer loop
      vertex   -8.416542e+00 7.296295e+00 9.400000e+00
      vertex   9.611578e+00 5.697810e+00 9.400000e+00
      vertex   8.416542e+00 7.296295e+00 9.400000e+00
    endloop
  endfacet
  facet normal 0.000000e+00 0.000000e+00 1.000000e+00
    outer loop
      vertex   1.049502e+01 3.908174e+00 9.400000e+00
      vertex   9.611578e+00 5.697810e+00 9.400000e+00
      vertex   -8.416542e+00 7.296295e+00 9.400000e+00
    endloop
  endfacet
  facet normal 0.000000e+00 0.000000e+00 1.000000e+00
    outer loop
      vertex   -1.049502e+01 3.908174e+00 9.400000e+00
      vertex   -1.103722e+01 1.987424e+00 9.400000e+00
      vertex   8.416542e+00 -7.296295e+00 9.400000e+00
    endloop
  endfacet
  facet normal 0.000000e+00 0.000000e+00 1.000000e+00
    outer loop
      vertex   8.416542e+00 -7.296295e+00 9.400000e+00
      vertex   -1.103722e+01 1.987424e+00 9.400000e+00
      vertex   -1.122000e+01 -1.775282e-14 9.400000e+00
    endloop
  endfacet
  facet normal 0.000000e+00 0.000000e+00 1.000000e+00
    outer loop
      vertex   8.416542e+00 -7.296295e+00 9.400000e+00
      vertex   -1.122000e+01 -1.775282e-14 9.400000e+00
      vertex   -1.103722e+01 -1.987424e+00 9.400000e+00
    endloop
  endfacet
  facet normal 0.000000e+00 0.000000e+00 1.000000e+00
    outer loop
      vertex   -8.416542e+00 -7.296295e+00 9.400000e+00
      vertex   -6.950000e+00 -8.650000e+00 9.400000e+00
      vertex   6.950000e+00 -8.650000e+00 9.400000e+00
    endloop
  endfacet
  facet normal 0.000000e+00 -0.000000e+00 1.000000e+00
    outer loop
      vertex   6.950000e+00 -8.650000e+00 9.400000e+00
      vertex   8.416542e+00 -7.296295e+00 9.400000e+00
      vertex   -8.416542e+00 -7.296295e+00 9.400000e+00
    endloop
  endfacet
  facet normal 0.000000e+00 0.000000e+00 1.000000e+00
    outer loop
      vertex   8.416542e+00 -7.296295e+00 9.400000e+00
      vertex   -1.103722e+01 -1.987424e+00 9.400000e+00
      vertex   -1.049502e+01 -3.908174e+00 9.400000e+00
    endloop
  endfacet
  facet normal 0.000000e+00 0.000000e+00 1.000000e+00
    outer loop
      vertex   -1.049502e+01 -3.908174e+00 9.400000e+00
      vertex   -9.611578e+00 -5.697810e+00 9.400000e+00
      vertex   8.416542e+00 -7.296295e+00 9.400000e+00
    endloop
  endfacet
  facet normal 0.000000e+00 0.000000e+00 1.000000e+00
    outer loop
      vertex   8.416542e+00 -7.296295e+00 9.400000e+00
      vertex   -9.611578e+00 -5.697810e+00 9.400000e+00
      vertex   -8.416542e+00 -7.296295e+00 9.400000e+00
    endloop
  endfacet
endsolid
